<svg width="81" height="80" viewBox="0 0 81 80" fill="none" xmlns="http://www.w3.org/2000/svg">
<path d="M56.4 23.8C56.7 23.3 57.2999 23.1 57.7999 23.4C58.7 23.9 59.4 24.7 59.7 25.7C60 26.7 59.9 27.7 59.4 28.7C59.3 28.9 59.0999 29.1 58.7999 29.2C58.7 29.2 58.5999 29.2 58.5 29.2C58.2999 29.2 58.2 29.2 58 29.1C57.5 28.8 57.3 28.2 57.6 27.7C57.8 27.3 57.9 26.8 57.7 26.3C57.6 25.8 57.2 25.5 56.7999 25.2C56.2999 24.9 56.1 24.3 56.4 23.8ZM18.6 36.3C18.2 36.1 17.9 35.7 17.8 35.2C17.7 34.7 17.7 34.3 18 33.8C18.3 33.3 18.1 32.7 17.6 32.4C17.1 32.1 16.5 32.3 16.2 32.8C15.7 33.7 15.5 34.7 15.8 35.7C16.1 36.7 16.7 37.5 17.6 38.1C17.8 38.2 17.9 38.2 18.1 38.2C18.5 38.2 18.8 38 19 37.7C19.1 37.5 19.2 37.2 19.1 36.9C19 36.7 18.9 36.4 18.6 36.3ZM61.4 49.1C61.5 49.1 61.6 49.1 61.7 49.1C63.7 48.5 64.9 46.3 64.2 44.2C64 43.7 63.4 43.4 62.9 43.5C62.4 43.7 62 44.3 62.2 44.8C62.2999 45.3 62.3 45.7 62.1 46.2C61.9 46.6 61.5 46.9 61.1 47.1C60.6 47.3 60.2 47.9 60.4 48.4C60.5 48.9 61 49.1 61.4 49.1ZM24.6 55.5C23.6 55.6 22.7 54.9 22.6 53.9C22.5 53.3 22 52.9 21.5 53C21.2 53 21 53.2 20.8 53.4C20.6 53.6 20.5 53.9 20.6 54.2C20.7 55.2 21.2 56.2 22 56.8C22.7 57.4 23.6 57.7 24.4 57.7C24.5 57.7 24.7 57.7 24.8 57.7C25.1 57.7 25.3 57.5 25.5 57.3C25.7 57.1 25.8 56.8 25.7 56.5C25.7 55.9 25.2 55.5 24.6 55.5ZM66.2 40C67.5 41.5 68.2 43.4 68.2 45.4C68.2 48.5 66.4 51.3 63.7 52.7C63.7 53 63.7 53.2 63.7 53.5C63.7 58 60 61.7 55.5 61.7H55.4C54.5 65.4 51.2 68 47.4 68C44.4 68 41.6 66.4 40.2 63.7C38.8 66.4 36 68 33 68C29.2 68 25.9 65.4 25 61.7H24.9C20.4 61.7 16.7 58 16.7 53.5C16.7 53.2 16.7 53 16.7 52.7C13.9 51.3 12.2 48.4 12.2 45.4C12.2 43.4 12.9 41.5 14.2 40C12.9 38.5 12.2 36.6 12.2 34.6C12.2 31.5 14 28.7 16.7 27.3C16.7 27 16.7 26.8 16.7 26.5C16.7 22 20.4 18.3 24.9 18.3H25C25.9 14.6 29.1 12 33 12C36 12 38.8 13.6 40.2 16.3C41.6 13.6 44.4 12 47.4 12C51.2 12 54.5 14.6 55.4 18.3H55.5C60 18.3 63.7 22 63.7 26.5C63.7 26.8 63.7 27 63.7 27.3C66.5 28.7 68.2 31.6 68.2 34.6C68.2 36.6 67.5 38.5 66.2 40ZM47.2999 53.6V51.6H47.4C51.9 51.6 55.5 55.2 55.6 59.7C59 59.6 61.7 56.9 61.7 53.5C61.7 53.1 61.7 52.7 61.6 52.3L61.4 51.5L62.2 51.2C64.6 50.3 66.2 48 66.2 45.4C66.2 42 63.4 39.2 60 39.2C56.5999 39.2 53.7999 42 53.7999 45.4V45.5H51.7999V45.4C51.7999 40.9 55.5 37.2 60 37.2C61.7 37.2 63.2999 37.7 64.7 38.7C65.7 37.6 66.2 36.1 66.2 34.6C66.2 32.4 65.1 30.4 63.2 29.3C62 32.5 58.9 34.7 55.5 34.7H55.4V32.7H55.5C58.9 32.7 61.7 29.9 61.7 26.5C61.7 23.1 59 20.4 55.6 20.3C55.5 24.8 51.9 28.4 47.4 28.4H47.2999V26.4H47.4C50.8 26.4 53.6 23.6 53.6 20.2C53.6 16.8 50.8 14 47.4 14C44 14 41.2 16.8 41.2 20.2V23.9H39.2V20.2C39.2 16.8 36.4 14 33 14C30.2 14 27.7 15.9 27 18.6C30.6 19.6 33.1 22.8 33.1 26.5V26.6H31.1V26.5C31.1 23.1 28.3 20.3 24.9 20.3C21.5 20.3 18.7 23.1 18.7 26.5C18.7 26.9 18.7 27.3 18.8 27.7L19 28.5L18.2 28.8C15.8 29.7 14.2 32 14.2 34.6C14.2 38 17 40.8 20.4 40.8H20.5V42.8H20.4C18.7 42.8 17.1 42.3 15.7 41.3C14.7 42.4 14.2 43.9 14.2 45.4C14.2 47.6 15.3 49.6 17.2 50.7C18.4 47.5 21.5 45.3 24.9 45.3H25V47.3H24.9C21.5 47.3 18.7 50.1 18.7 53.5C18.7 56.9 21.5 59.7 24.9 59.7C28.3 59.7 31.1 56.9 31.1 53.5V53.4H33.1V53.5C33.1 57.2 30.6 60.5 27 61.4C27.7 64.1 30.2 66 33 66C36.4 66 39.2 63.2 39.2 59.8V25.5H41.2V59.8C41.2 63.2 44 66 47.4 66C50.8 66 53.6 63.2 53.6 59.8C53.6 56.4 50.7999 53.6 47.2999 53.6ZM46.9 61.8C46.3 61.7 45.8 62 45.6 62.6C45.5 63.2 45.8 63.7 46.4 63.9C46.7 64 47 64 47.2999 64C49.0999 64 50.7 62.8 51.1 61C51.2 60.4 50.8999 59.9 50.2999 59.7C49.7 59.6 49.2 59.9 49 60.5C48.9 61 48.6 61.4 48.2 61.6C47.9 61.8 47.4 61.9 46.9 61.8ZM30.9 38.8C31.2 38.7 31.4 38.6 31.6 38.3C31.7 38.1 31.8 37.8 31.7 37.5C31.6 37 31.7 36.6 31.9 36.1C32.2 35.7 32.6 35.4 33 35.3C33.6 35.2 33.9 34.6 33.7999 34C33.6999 33.4 33.1 33.1 32.5 33.2C31.5 33.4 30.6 34 30.1 34.9C29.5 35.8 29.4 36.8 29.6 37.8C29.7 38.1 29.8 38.3 30.1 38.5C30.3 38.6 30.5 38.7 30.7 38.7C30.8 38.9 30.9 38.9 30.9 38.8ZM36.1 43.9C35.6 43.6 35 43.8 34.7 44.3C34.5 44.7 34.1 45 33.6 45.2C33.1 45.3 32.7 45.3 32.2 45.1C32 45 31.7 44.9 31.4 45C31.1 45.1 30.9 45.3 30.8 45.5C30.5 46 30.7 46.6 31.2 46.9C31.8 47.2 32.4 47.4 33.1 47.4C34.5 47.4 35.7999 46.7 36.5 45.4C36.6 45.2 36.7 44.9 36.6 44.6C36.5 44.2 36.3 44 36.1 43.9Z" fill="#007934"/>
<path d="M49.7 32.8999C48 32.8999 46.5 34.2999 46.5 36.0999C46.5 37.8999 47.9 39.2999 49.7 39.2999C51.4 39.2999 52.9 37.8999 52.9 36.0999C52.9 34.2999 51.5 32.8999 49.7 32.8999ZM51.2 36.0999C51.2 36.8999 50.6 37.4999 49.8 37.4999C49 37.4999 48.4 36.8999 48.4 36.0999C48.4 35.2999 49 34.6999 49.8 34.6999C50.5 34.6999 51.2 35.2999 51.2 36.0999ZM43.7 34.5999C43.5 34.3999 43.4 34.0999 43.4 33.8999C43.4 31.7999 45.1 29.9999 47.2 29.8999C47.8 29.8999 48.2 30.3999 48.2 30.8999C48.2 31.4999 47.8 31.9999 47.2 31.9999C46.7 31.9999 46.3 32.1999 45.9 32.5999C45.6 32.8999 45.4 33.3999 45.4 33.8999C45.4 34.4999 45 34.9999 44.4 34.9999C44.2 34.8999 43.9 34.7999 43.7 34.5999ZM49 42.4999C49 40.6999 47.6 39.2999 45.8 39.2999C44.1 39.2999 42.6 40.6999 42.6 42.4999C42.6 44.1999 44 45.6999 45.8 45.6999C47.6 45.6999 49 44.2999 49 42.4999ZM47.3 42.4999C47.3 43.2999 46.7 43.8999 45.9 43.8999C45.1 43.8999 44.5 43.2999 44.5 42.4999C44.5 41.6999 45.1 41.0999 45.9 41.0999C46.6 41.0999 47.3 41.6999 47.3 42.4999ZM50.4 47.1999C50 48.0999 49.2 48.7999 48.2 49.1999C47.8 49.3999 47.3 49.3999 46.9 49.3999C46.3 49.3999 45.8 49.2999 45.2 48.9999C44.9 48.8999 44.8 48.6999 44.7 48.3999C44.6 48.0999 44.6 47.8999 44.7 47.5999C44.8 47.2999 45 47.1999 45.3 47.0999C45.6 46.9999 45.8 46.9999 46.1 47.0999C47 47.4999 48.1 47.0999 48.5 46.2999C48.6 45.9999 48.8 45.8999 49.1 45.7999C49.4 45.6999 49.6 45.6999 49.9 45.7999C50.4 46.0999 50.7 46.6999 50.4 47.1999Z" fill="#F26531"/>
</svg>
