<svg width="81" height="80" viewBox="0 0 81 80" fill="none" xmlns="http://www.w3.org/2000/svg">
<path d="M76.4999 15V25.8C76.4999 27.3 75.2999 28.5 73.7999 28.5H70.4999L62.0999 34.8V28.5H53.9999V26.7H63.8999V31.2001L69.8999 26.7H73.7999C74.2999 26.7 74.6999 26.3 74.6999 25.8V15C74.6999 14.5 74.2999 14.1 73.7999 14.1H52.1999C51.6999 14.1 51.2999 14.5 51.2999 15V16.4V17.1V18.2C51.2999 18.2 49.3999 16.3 49.4999 16.4V15C49.4999 13.5 50.6999 12.3 52.1999 12.3H73.8999C75.2999 12.3 76.4999 13.5 76.4999 15ZM69.7999 23.1C68.2999 23.1 67.0999 21.9 67.0999 20.4C67.0999 18.9 68.2999 17.7 69.7999 17.7C71.2999 17.7 72.4999 18.9 72.4999 20.4C72.4999 21.9 71.1999 23.1 69.7999 23.1ZM69.7999 21.3C70.2999 21.3 70.6999 20.9 70.6999 20.4C70.6999 19.9 70.2999 19.5 69.7999 19.5C69.2999 19.5 68.8999 19.9 68.8999 20.4C68.7999 20.9 69.2999 21.3 69.7999 21.3ZM63.3999 23.1C61.8999 23.1 60.6999 21.9 60.6999 20.4C60.6999 18.9 61.8999 17.7 63.3999 17.7C64.8999 17.7 66.0999 18.9 66.0999 20.4C66.0999 21.9 64.8999 23.1 63.3999 23.1ZM63.3999 21.3C63.8999 21.3 64.2999 20.9 64.2999 20.4C64.2999 19.9 63.8999 19.5 63.3999 19.5C62.8999 19.5 62.4999 19.9 62.4999 20.4C62.4999 20.9 62.8999 21.3 63.3999 21.3ZM57.0999 23.1C55.5999 23.1 54.3999 21.9 54.3999 20.4C54.3999 18.9 55.5999 17.7 57.0999 17.7C58.5999 17.7 59.7999 18.9 59.7999 20.4C59.7999 21.9 58.5999 23.1 57.0999 23.1ZM57.0999 21.3C57.5999 21.3 57.9999 20.9 57.9999 20.4C57.9999 19.9 57.5999 19.5 57.0999 19.5C56.5999 19.5 56.1999 19.9 56.1999 20.4C56.1999 20.9 56.5999 21.3 57.0999 21.3Z" fill="#F26531"/>
<path fill-rule="evenodd" clip-rule="evenodd" d="M53.9 28.3C55 29.1 55.7 30.4 55.7 31.9C55.7 34.4 53.7 36.4 51.2 36.4H50.3C50.3 39.5 48.9 42.2 46.7 44.1V45.7L55.6 48.1C58.4 48.8 60.3 51.3 60.3 54.2V68H20.5V54.1C20.5 51.2 22.4 48.7 25.2 48L34.1 45.6V44C33.1 43.2 32.3 42.2 31.7 41.1C31.6 41 31 39.6 30.8 39C30.6 38.1 30.4 37.2 30.4 36.3H29.5C29.4 36.3 29.4 36.3 29.3 36.3C29.3 36.3 28.8 36.3 28.2 36.1C27.6 35.9 26.8 35.3 26.8 35.3C25.7 34.5 25 33.2 25 31.7C25 30.2 25.7 28.9 26.8 28.1V25.4C26.9 18.1 32.9 12 40.4 12C43.9 12 47 13.3 49.4 15.5C49.4 15.5 50.2 16.2 51.2 17.5C52.2 18.8 53.9 22.6 53.9 25.6V28.3ZM40.4 13.8C33.9 13.8 28.7 19.1 28.7 25.5V27.4C29 27.3 29.3 27.3 29.6 27.3H30.5H31.4C34.1 27.3 36.6 26.3 38.5 24.4L40.5 22.4L42.5 24.4C44.4 26.3 46.9 27.3 49.6 27.3H50.5H51.4C51.7 27.3 52 27.3 52.3 27.4V25.5C52.1 19.1 46.9 13.8 40.4 13.8ZM30.5 29.2H29.6C28.1 29.2 26.9 30.4 26.9 31.9C26.9 33.4 28.1 34.6 29.6 34.6H30.5V29.2ZM39.1 51.7L34.8 47.3L31.9 48.1L35.4 54.8L39.1 51.7ZM41.6 57.2L42.7 54.9L40.3 52.9L37.9 54.9L39 57.2H41.6ZM41.4 59H39.4L38.7 66.2H42.1L41.4 59ZM30 48.6L25.7 49.7C23.7 50.2 22.3 52 22.3 54.1V60.8H27.7V56.3H29.5V66.2H36.8L37.6 58.2L36.5 56.1L34.6 57.7L30 48.6ZM27.8 66.2V62.6H22.4V66.2H27.8ZM53 62.6V66.2H58.4V62.6H53ZM58.5 60.8V54.1C58.5 52.1 57.1 50.3 55.1 49.7L50.8 48.6L46.1 57.7L44.2 56.1L43.1 58.2L43.9 66.2H51.2V56.3H53V60.8H58.5ZM45.5 54.8L49 48.1L46 47.3L41.7 51.7L45.5 54.8ZM40.4 50.5L44.9 46V45.3C43.5 46 42 46.4 40.4 46.4C38.8 46.4 37.2 46 35.9 45.3V46L40.4 50.5ZM40.4 44.5C44.9 44.5 48.5 40.9 48.5 36.4V29.1C45.7 28.9 43.1 27.7 41.1 25.7L40.4 25L39.7 25.7C37.7 27.7 35.1 28.9 32.3 29.1V36.4C32.3 37.4 32.5 38.3 32.8 39.1C32.8 39.1 33.2 40.2 33.7 40.9C35.1 43.1 37.6 44.5 40.4 44.5ZM50.3 34.6H51.2C52.7 34.6 53.9 33.4 53.9 31.9C53.9 30.4 52.7 29.2 51.2 29.2H50.3V34.6Z" fill="#007934"/>
<path d="M43.5999 32.2001C43.5999 31.7001 43.9999 31.3 44.4999 31.3C44.9999 31.3 45.3999 31.7001 45.3999 32.2001C45.3999 32.7001 44.9999 33.1 44.4999 33.1C43.9999 33.1 43.5999 32.7001 43.5999 32.2001ZM45.3999 40.1C45.3999 41.6 44.1999 42.8 42.6999 42.8H39.0999C37.8999 42.8 36.8999 42 36.5999 41H34.1999H32.0999H30.0999C28.5999 41 27.3999 39.8 27.3999 38.3V35.8C27.3999 35.8 28.4999 36.3001 29.1999 36.4001V38.3C29.1999 38.8 29.5999 39.2001 30.0999 39.2001H31.3999H33.2999H36.5999C36.9999 38.2001 37.9999 37.4001 39.0999 37.4001H42.6999C44.1999 37.4001 45.3999 38.6 45.3999 40.1ZM43.5999 40.1C43.5999 39.6 43.1999 39.2001 42.6999 39.2001H39.0999C38.5999 39.2001 38.1999 39.6 38.1999 40.1C38.1999 40.6 38.5999 41 39.0999 41H42.6999C43.1999 41 43.5999 40.6 43.5999 40.1ZM35.4999 33.1C35.9999 33.1 36.3999 32.7001 36.3999 32.2001C36.3999 31.7001 35.9999 31.3 35.4999 31.3C34.9999 31.3 34.5999 31.7001 34.5999 32.2001C34.5999 32.7001 34.9999 33.1 35.4999 33.1Z" fill="#F26531"/>
</svg>
