<svg width="81" height="80" viewBox="0 0 81 80" fill="none" xmlns="http://www.w3.org/2000/svg">
<path d="M35.8001 39.4C36.0001 39.4 36.3001 39.4 36.6001 39.3C37.9001 39.1 39.0001 38.4 39.8001 37.3C40.6001 36.2 40.9001 34.9 40.7001 33.7C40.5001 32.4 39.8001 31.3 38.8001 30.5C37.8001 29.7 36.5001 29.4 35.2001 29.6C33.9001 29.8 32.7001 30.5 32.0001 31.5C31.2001 32.5 30.9001 33.8 31.1001 35.1C31.3001 37.6 33.4001 39.4 35.8001 39.4ZM35.4001 32.1C35.5001 32.1 35.6001 32.1 35.6001 32.1C35.7001 32.1 35.7001 32.1 35.8001 32.1C37.0001 32.1 38.1001 33 38.2001 34.2C38.3001 34.8 38.2001 35.5 37.8001 36C37.4001 36.5 36.8001 36.9 36.2001 37C34.8001 37.2 33.6001 36.3 33.4001 34.9C33.1001 33.6 34.0001 32.3 35.4001 32.1ZM51.0001 33.5C51.0001 33.8 50.8001 34.1 50.6001 34.3L32.2001 48.8C32.1001 48.9 32.0001 48.9 31.8001 49C31.7001 49 31.5001 49.1 31.4001 49.1C31.0001 49.1 30.7001 48.9 30.4001 48.6C30.2001 48.4 30.1001 48.1 30.1001 47.7C30.1001 47.4 30.3001 47.1 30.5001 46.9L48.9001 32.4C49.5001 32 50.2001 32.1 50.6001 32.6C51.0001 32.8 51.1001 33.2 51.0001 33.5ZM45.5001 41.8C42.8001 41.8 40.6001 44 40.6001 46.7C40.6001 49.4 42.8001 51.6 45.5001 51.6C48.2001 51.6 50.4001 49.4 50.4001 46.7C50.4001 44 48.2001 41.8 45.5001 41.8ZM43.0001 46.7C43.0001 45.4 44.1001 44.2 45.5001 44.2C46.9001 44.2 48.0001 45.3 48.0001 46.7C47.9001 48.1 46.9001 49.2 45.5001 49.2C44.1001 49.1 43.0001 48 43.0001 46.7Z" fill="#F26531"/>
<path d="M68.6001 39.9999C68.6001 39.8999 68.6001 39.8999 68.6001 39.7999C68.6001 36.9999 65.7001 35.5999 63.3001 34.4999C61.7001 33.6999 59.8001 32.7999 59.4001 31.7999C59.0001 30.7999 59.6001 28.9999 60.3001 27.1999C61.2001 24.7999 62.2001 21.9999 60.4001 20.1999C58.6001 18.4999 56.2001 18.9999 53.8001 19.4999L53.3001 19.5999C51.7001 19.8999 50.1001 20.2999 49.1001 19.8999C48.0001 19.3999 47.0001 17.7999 46.2001 16.4999L46.1001 16.2999C44.8001 14.2999 43.3001 11.8999 40.6001 11.8999C37.9001 11.8999 36.3001 14.3999 35.1001 16.4999C34.2001 17.9999 33.3001 19.4999 32.2001 19.8999C31.1001 20.3999 29.1001 19.8999 27.7001 19.4999C25.3001 18.8999 22.6001 18.1999 20.9001 19.9999C19.1001 21.7999 19.9001 24.2999 20.7001 26.7999V26.8999C21.3001 28.6999 21.8001 30.4999 21.4001 31.5999C21.0001 32.5999 19.4001 33.3999 17.8001 34.1999L17.6001 34.4999C15.3001 35.6999 12.6001 37.0999 12.6001 39.6999C12.6001 39.7999 12.6001 39.8999 12.6001 39.9999C12.6001 40.0999 12.6001 40.0999 12.6001 40.1999C12.6001 42.9999 15.5001 44.3999 17.7001 45.4999L17.9001 45.5999C19.4001 46.3999 21.0001 47.1999 21.5001 48.1999C21.9001 49.1999 21.4001 50.8999 20.9001 52.5999L20.8001 52.9999C20.0001 55.4999 19.2001 58.0999 21.0001 59.7999C22.8001 61.5999 25.3001 60.8999 27.7001 60.2999H27.8001C29.2001 59.8999 31.2001 59.4999 32.3001 59.8999C33.4001 60.3999 34.3001 61.8999 35.2001 63.2999C36.4001 65.2999 38.0001 67.8999 40.7001 67.8999C43.5001 67.8999 45.1001 65.2999 46.3001 63.3999C47.1001 62.0999 48.1001 60.4999 49.2001 60.0999C50.3001 59.5999 52.0001 59.9999 53.7001 60.3999H53.8001C56.2001 60.9999 58.7001 61.4999 60.5001 59.7999C62.3001 57.9999 61.3001 55.1999 60.4001 52.7999C59.8001 51.0999 59.1001 49.2999 59.5001 48.1999C60.0001 47.0999 61.7001 46.2999 63.4001 45.4999L63.6001 45.3999C66.0001 44.1999 68.7001 42.7999 68.7001 40.1999C68.6001 40.0999 68.6001 40.0999 68.6001 39.9999C68.6001 39.9999 68.5001 39.9999 68.6001 39.9999ZM57.3001 47.3999C56.5001 49.1999 57.2001 51.2999 57.9001 53.2999L58.1001 53.7999C58.8001 55.5999 59.4001 57.4999 58.7001 58.1999C57.8001 59.0999 55.9001 58.5999 54.1001 58.1999C51.9001 57.6999 50.0001 57.2999 48.2001 57.9999C46.5001 58.6999 45.4001 60.2999 44.2001 62.1999V62.2999C43.1001 63.9999 42.0001 65.6999 40.6001 65.6999C39.2001 65.6999 38.1001 63.9999 37.0001 62.1999C35.9001 60.2999 34.8001 58.5999 33.0001 57.8999C32.3001 57.5999 31.6001 57.4999 30.9001 57.4999C29.7001 57.4999 28.3001 57.7999 27.0001 58.1999H26.8001C24.9001 58.6999 23.2001 59.0999 22.3001 58.2999C21.5001 57.4999 22.1001 55.4999 22.7001 53.6999L22.8001 53.4999C23.5001 51.3999 24.1001 49.2999 23.3001 47.4999C22.5001 45.5999 20.4001 44.5999 18.5001 43.5999C16.6001 42.5999 14.7001 41.6999 14.7001 40.2999C14.7001 40.1999 14.7001 40.0999 14.7001 39.9999C14.7001 39.8999 14.7001 39.8999 14.7001 39.7999C14.7001 38.4999 16.4001 37.5999 18.3001 36.5999L18.5001 36.4999C20.4001 35.5999 22.5001 34.4999 23.3001 32.5999C24.1001 30.5999 23.3001 28.2999 22.7001 26.3999C22.1001 24.4999 21.5001 22.5999 22.3001 21.7999C23.2001 20.8999 25.1001 21.3999 26.9001 21.8999L27.1001 21.9999C29.1001 22.4999 31.1001 22.9999 32.9001 22.1999C34.6001 21.4999 35.7001 19.7999 36.9001 17.8999L37.0001 17.6999C38.1001 15.8999 39.1001 14.2999 40.5001 14.2999C41.9001 14.2999 43.0001 15.8999 44.1001 17.6999V17.7999C45.2001 19.4999 46.3001 21.1999 48.1001 21.9999C49.8001 22.6999 51.8001 22.2999 53.7001 21.8999L54.0001 21.7999C55.8001 21.3999 57.7001 20.8999 58.6001 21.7999C59.4001 22.4999 58.7001 24.3999 58.0001 26.1999V26.2999C57.2001 28.2999 56.4001 30.6999 57.2001 32.5999C57.9001 34.3999 60.0001 35.3999 61.9001 36.3999L62.2001 36.4999C64.4001 37.4999 66.1001 38.4999 66.1001 39.7999C66.1001 39.8999 66.1001 39.9999 66.1001 40.0999C66.1001 40.1999 66.1001 40.1999 66.1001 40.2999C66.2001 41.3999 63.8001 42.4999 62.2001 43.2999L61.9001 43.3999C60.1001 44.5999 58.0001 45.5999 57.3001 47.3999Z" fill="#007934"/>
</svg>
