<svg width="81" height="80" viewBox="0 0 81 80" fill="none" xmlns="http://www.w3.org/2000/svg">
<path d="M26.8718 59.9798L15.9554 46.7947C15.8174 46.6275 15.6166 46.5242 15.3911 46.503C15.1285 46.4806 14.858 46.567 14.6443 46.7453C14.2298 47.0876 14.1428 47.6687 14.4503 48.0424L25.3666 61.2263C25.5282 61.4215 25.7677 61.5204 26.0186 61.5204C26.2447 61.5204 26.4803 61.4407 26.6771 61.2769C27.0923 60.9336 27.1798 60.3512 26.8718 59.9798Z" fill="#F26531"/>
<path d="M14.4476 22.0566C14.2361 21.9034 14.0975 21.6767 14.0566 21.4193C14.0157 21.1612 14.0774 20.9031 14.2312 20.6916C14.3843 20.4801 14.611 20.3415 14.8691 20.3006C15.1294 20.2608 15.3852 20.3225 15.5961 20.4756L30.3611 31.2046C30.572 31.3583 30.7106 31.5844 30.7515 31.8425C30.7924 32.1 30.7301 32.358 30.577 32.569C30.5473 32.6098 30.5015 32.6272 30.4671 32.6622L30.4592 32.7048L30.2914 32.8316C29.7002 33.193 29.3466 33.8218 29.3466 34.5136C29.3466 35.5986 30.2297 36.4817 31.3147 36.4817C32.4014 36.4817 33.2861 35.5986 33.2861 34.5136C33.2861 33.9447 33.7092 33.5919 33.9587 33.4729L34.3094 33.318L34.6807 33.405L34.7498 33.5632C34.7975 33.6726 34.8368 33.7432 34.8676 33.7994C34.9803 34.0041 35.0263 34.1259 35.0263 34.5136C35.0263 36.5601 33.3613 38.2253 31.3146 38.2253C29.2679 38.2253 27.6029 36.5603 27.6029 34.5136C27.6029 33.6012 27.8937 32.823 28.4361 32.222L14.4476 22.0566ZM50.6614 31.8419C50.6199 32.1 50.6828 32.358 50.8354 32.569C50.913 32.6759 51.0101 32.7636 51.1199 32.8301C51.1206 32.8306 51.1208 32.8312 51.1214 32.8315C51.7127 33.1929 52.0662 33.8217 52.0662 34.5135C52.0662 35.5985 51.1831 36.4816 50.0982 36.4816C49.0109 36.4816 48.1268 35.5985 48.1268 34.5135C48.1268 33.9446 47.7037 33.5918 47.4445 33.4688L47.2695 33.3988L46.8364 33.0907L46.6669 33.4795C46.6276 33.5681 46.5939 33.6372 46.5647 33.6961C46.4447 33.9446 46.3863 34.0832 46.3863 34.5135C46.3863 36.56 48.0514 38.2252 50.0981 38.2252C52.1447 38.2252 53.8098 36.5601 53.8098 34.5135C53.8098 33.6199 53.51 32.8384 52.9652 32.23L66.9657 22.0566C67.4011 21.7402 67.4987 21.1275 67.1823 20.6916C66.8625 20.2551 66.2521 20.1598 65.8156 20.4756L51.0518 31.2046C50.841 31.3578 50.7018 31.5844 50.6614 31.8419ZM21.297 32.573C20.9495 34.5395 21.1221 36.5294 21.8227 38.3907C23.2077 42.0676 26.4651 44.7206 30.2883 45.6032C27.4142 46.7291 25.3701 49.5233 25.3701 52.7921V52.9929C25.3701 53.4742 25.7605 53.8648 26.2413 53.8648C26.7222 53.8648 27.1132 53.4743 27.1132 52.9929V52.7921C27.1132 49.4944 29.796 46.8116 33.0937 46.8116H37.119V45.0679H34.9212L34.6073 44.076L34.324 44.1097C29.6148 44.6651 25.047 42.0048 23.4543 37.7758C22.9631 36.4709 22.7818 35.0748 22.9078 33.6765L24.1695 34.5409C24.3339 34.6537 24.5247 34.712 24.7199 34.712C24.7798 34.712 24.8411 34.7064 24.9016 34.6953C25.158 34.6476 25.3807 34.5022 25.5283 34.2874C25.6758 34.0719 25.7308 33.8122 25.6826 33.5552C25.6343 33.2989 25.4896 33.0761 25.2741 32.9286L14.5866 25.6067C14.1423 25.3021 13.5336 25.416 13.2284 25.8597V25.8603C12.9239 26.3051 13.0377 26.9144 13.4826 27.219L21.297 32.573ZM34.8377 55.2463C34.8378 55.239 34.8418 55.2331 34.8418 55.2258V52.1391C34.8418 51.6005 34.4037 51.1618 33.8651 51.1618C33.326 51.1618 32.8878 51.6005 32.8878 52.1391V54.5914L22.5342 58.8276C22.036 59.0318 21.7964 59.6029 22.0001 60.1023C22.0994 60.3446 22.2862 60.5331 22.5269 60.6341C22.6487 60.6846 22.7766 60.7104 22.9045 60.7104C23.0296 60.7104 23.1553 60.6857 23.2748 60.6363L34.2332 56.1516C34.6108 55.9968 34.8373 55.6311 34.8377 55.2463ZM56.017 57.6573L48.524 54.5914V52.1391C48.524 51.6005 48.0863 51.1618 47.5478 51.1618C47.0093 51.1618 46.5705 51.6005 46.5705 52.1391V55.2258C46.5705 55.2335 46.5746 55.2397 46.5749 55.2473C46.575 55.6318 46.8017 55.9968 47.1798 56.1514L55.2776 59.466C55.3965 59.5154 55.5222 59.5401 55.6479 59.5401C55.7758 59.5401 55.9038 59.5142 56.026 59.4627C56.2662 59.3617 56.4536 59.1731 56.5523 58.9308H56.5534C56.7552 58.4326 56.515 57.8604 56.017 57.6573ZM18.4291 34.5304C18.5531 34.5825 18.6821 34.6078 18.8096 34.6078C19.19 34.6078 19.5524 34.384 19.7106 34.012C19.921 33.5161 19.6882 32.941 19.1922 32.7306L14.3466 30.6773C13.8541 30.4708 13.2762 30.6997 13.0653 31.1957C12.8555 31.6916 13.0877 32.2661 13.5837 32.4776L18.4291 34.5304ZM18.7944 37.6283C19.0548 37.6283 19.2998 37.5273 19.4839 37.3428C19.669 37.1583 19.7706 36.9131 19.7706 36.6528C19.7717 36.1141 19.3341 35.6749 18.7944 35.6743L14.3657 35.671C14.3651 35.671 14.3645 35.671 14.364 35.671C14.1036 35.671 13.859 35.7719 13.6745 35.9565C13.49 36.1405 13.3878 36.3856 13.3878 36.6465V36.6471C13.3878 37.1862 13.8259 37.6244 14.364 37.6244L18.7927 37.6283C18.7933 37.6283 18.7938 37.6283 18.7944 37.6283ZM20.8207 40.1647C20.938 39.9313 20.9576 39.6659 20.8752 39.4186C20.7069 38.9081 20.1543 38.6292 19.641 38.7981L16.0325 39.992C15.7851 40.0733 15.5837 40.2467 15.4664 40.4801C15.3491 40.7134 15.3296 40.9783 15.412 41.2262C15.5472 41.6357 15.9304 41.8961 16.341 41.8961C16.442 41.8961 16.5452 41.8803 16.6462 41.8478L20.2546 40.6533C20.5027 40.5714 20.7035 40.3975 20.8207 40.1647ZM22.8438 42.9821C22.9117 42.7296 22.8775 42.466 22.7467 42.2393C22.4774 41.7736 21.88 41.6132 21.4127 41.8814L19.3773 43.0539C19.1512 43.1829 18.989 43.3939 18.9211 43.6451C18.8532 43.8976 18.8875 44.1613 19.0182 44.388C19.1983 44.7021 19.5281 44.8772 19.8665 44.8772C20.0315 44.8772 20.1992 44.8357 20.3524 44.747L22.3878 43.5745C22.6138 43.4444 22.7759 43.2346 22.8438 42.9821ZM25.7409 44.4363C25.5502 44.2579 25.3045 44.1771 25.0408 44.176C24.7794 44.1861 24.5375 44.296 24.3602 44.4879L23.0912 45.8556C22.7259 46.2507 22.7495 46.87 23.1434 47.2358C23.3251 47.4053 23.5596 47.4972 23.8064 47.4972C23.8187 47.4972 23.8311 47.496 23.8434 47.496C24.1048 47.4859 24.3467 47.376 24.524 47.1841L25.793 45.8164C26.1588 45.4215 26.1353 44.802 25.7409 44.4363ZM67.814 30.6711C67.5717 30.5746 67.308 30.5757 67.0656 30.6773L62.2206 32.7312C61.7257 32.941 61.4924 33.5155 61.7022 34.0125C61.8604 34.3839 62.2239 34.6072 62.6043 34.6072C62.7312 34.6072 62.8602 34.5825 62.9836 34.5304L67.8286 32.4771C68.3256 32.2661 68.558 31.691 68.347 31.1957C68.2449 30.9556 68.0564 30.7692 67.814 30.6711ZM67.0476 35.6704L62.6189 35.6743C62.0793 35.6749 61.6416 36.1135 61.6416 36.6528C61.6428 37.1908 62.0826 37.6283 62.6201 37.6283L67.0488 37.6244C67.5874 37.6244 68.025 37.1863 68.025 36.6471C68.025 36.1085 67.5863 35.6704 67.0476 35.6704ZM65.3804 39.9919L61.7719 38.7974C61.2603 38.6291 60.7071 38.9079 60.5377 39.4184C60.4558 39.6658 60.4749 39.9312 60.5927 40.164C60.7095 40.3974 60.9103 40.5713 61.1594 40.6532L64.7679 41.8477C64.8689 41.8802 64.971 41.896 65.0719 41.896C65.4825 41.896 65.8651 41.6367 66.0021 41.2273C66.084 40.9793 66.0638 40.7139 65.947 40.48C65.8292 40.2472 65.6283 40.0738 65.3804 39.9919ZM62.0355 43.0539L60.0001 41.8814C59.5344 41.6109 58.9364 41.7747 58.666 42.2404C58.3979 42.7071 58.5583 43.3063 59.0251 43.5745L61.0616 44.747C61.2142 44.8356 61.3814 44.8772 61.5464 44.8772C61.8852 44.8772 62.214 44.701 62.3947 44.388C62.526 44.1624 62.5597 43.8987 62.4923 43.6463C62.4237 43.3939 62.2622 43.1829 62.0355 43.0539ZM57.0525 44.4879C56.6878 44.0952 56.0651 44.0693 55.6714 44.4363C55.2775 44.8022 55.2551 45.4215 55.6209 45.8175L56.8888 47.1842C57.0807 47.3918 57.3432 47.4961 57.6058 47.4961C57.8436 47.4961 58.0815 47.4097 58.27 47.2358C58.4619 47.0585 58.5718 46.8162 58.5808 46.5558C58.5909 46.2944 58.4977 46.0453 58.3204 45.8545L57.0525 44.4879ZM56.3951 32.9286C56.1797 33.0761 56.0349 33.2989 55.9866 33.5552C55.9384 33.8122 55.9934 34.0719 56.1415 34.2868C56.2885 34.5022 56.5107 34.6476 56.7676 34.6953C56.8281 34.7065 56.8888 34.712 56.9494 34.712C57.1446 34.712 57.3353 34.6537 57.5003 34.5409L58.5155 33.8455C58.6123 35.1879 58.4303 36.5244 57.9592 37.7753C56.3659 42.0059 51.8002 44.6697 47.0889 44.1098L46.8061 44.0761L46.4922 45.068H44.8628V46.8117H48.689C51.9866 46.8117 54.6695 49.4945 54.6695 52.7922V52.993C54.6695 53.4743 55.0599 53.8649 55.5413 53.8649C56.0227 53.8649 56.4131 53.4745 56.4131 52.993V52.7922C56.4131 49.4654 54.2952 46.6315 51.34 45.5466C55.0692 44.6151 58.232 41.9981 59.5907 38.3902C60.2722 36.5792 60.452 34.6464 60.1417 32.7316L68.1878 27.2191C68.4032 27.0716 68.548 26.8488 68.5951 26.5919C68.6433 26.3356 68.5883 26.0758 68.4402 25.8604V25.8598C68.1372 25.4177 67.528 25.3032 67.0826 25.6068L56.3951 32.9286ZM44.1469 56.0623V53.481C44.1469 51.6061 45.6728 50.0801 47.5478 50.0801C49.4228 50.0801 50.9488 51.606 50.9488 53.481V54.1452H51.0234C51.1582 54.4522 51.4636 54.6681 51.8206 54.6681C52.1768 54.6681 52.4818 54.4522 52.6166 54.1452H52.6913V53.481C52.6913 50.6444 50.3844 48.3375 47.5478 48.3375C44.7112 48.3375 42.4033 50.6444 42.4033 53.481V54.9139V56.9997V57.0356L42.4432 57.0261L51.3548 62.8983L45.1923 66.169L44.0324 62.2722L43.9573 62.0265H43.9214C43.7655 61.783 43.4929 61.6281 43.1899 61.6281C42.7086 61.6281 42.318 62.0185 42.318 62.5C42.318 62.6021 42.336 62.7041 42.3663 62.7839L44.4766 69.8452C42.0965 70.6287 39.4887 70.6236 37.1054 69.8442L39.2078 62.775C39.2375 62.6875 39.2521 62.5956 39.2521 62.5001C39.2521 62.0188 38.8617 61.6282 38.3809 61.6282C37.9769 61.6282 37.6285 61.902 37.5382 62.2757L36.3577 66.2412L30.0576 62.8984L38.9718 57.0267L39.0092 57.0357V57.002V54.9139V53.481C39.0092 50.6444 36.7018 48.3375 33.8652 48.3375C31.0286 48.3375 28.7211 50.6444 28.7211 53.481V54.1452H28.7959C28.9308 54.4522 29.2363 54.6681 29.593 54.6681C29.9496 54.6681 30.2548 54.4522 30.3896 54.1452H30.4642V53.481C30.4642 51.6061 31.9902 50.0801 33.8652 50.0801C35.7402 50.0801 37.2661 51.606 37.2661 53.481V56.0619L27.8718 62.2497C27.6155 62.418 27.4651 62.7131 27.4797 63.0205C27.4949 63.3269 27.6721 63.6063 27.9419 63.7476L35.85 67.9457L35.4673 69.2313L35.4596 69.2276L35.4554 69.2716L35.1702 70.2296C35.0916 70.4922 35.1427 70.7806 35.3066 70.9993C35.3534 71.0624 35.4223 71.1 35.4834 71.1476C35.4947 71.1621 35.5087 71.167 35.5211 71.1793C35.5604 71.2064 35.5915 71.2419 35.6347 71.2623C35.6469 71.2684 35.6576 71.2829 35.6695 71.2878C37.2926 71.9454 39.011 72.2786 40.7759 72.2786C42.5583 72.2786 44.2907 71.9398 45.9266 71.2699C45.933 71.2672 45.9364 71.2613 45.9427 71.2584C45.9723 71.2441 45.9936 71.2194 46.0215 71.2019C46.0532 71.1785 46.0884 71.1582 46.1126 71.1274C46.1627 71.0862 46.222 71.0568 46.2621 71.0052C46.4304 70.7864 46.482 70.4969 46.4012 70.2299L45.6999 67.8737L53.4702 63.7489C53.7417 63.6064 53.9189 63.327 53.9335 63.0207C53.9481 62.7132 53.7977 62.4181 53.542 62.2498L44.1469 56.0623ZM27.7562 24.1721L27.7657 24.2043L28.0776 24.1386C28.7066 24.0069 29.2344 23.9187 29.7668 23.9187C30.7997 23.9187 31.773 24.1706 32.6375 24.6073C32.3449 25.2851 31.7337 25.8028 30.7738 26.1701L30.7323 26.1861C30.682 26.2015 30.6346 26.2175 30.5887 26.2414L30.5112 26.2711L30.5146 26.2913C30.2777 26.4473 30.1117 26.7027 30.1117 27.0072C30.1117 27.4124 30.3949 27.7381 30.77 27.8353L30.7726 27.8514L30.9222 27.8661C30.9434 27.8676 30.9615 27.8784 30.983 27.8784C30.9905 27.8784 30.9967 27.8744 31.0041 27.8742L31.0363 27.8773C31.1036 27.8835 31.1704 27.8868 31.2372 27.8868C32.4285 27.8868 33.5109 26.8692 34.1046 25.6286C35.3659 26.7974 36.1613 28.4621 36.1613 30.3132V34.0456H37.9044V30.3132C37.9044 26.2179 34.8603 22.8292 30.8574 22.2667C31.6082 21.9332 32.392 21.7812 33.2883 21.7812C36.9029 21.7812 39.8444 24.7007 39.8444 28.2885V34.1747H41.5875V28.2885C41.5875 23.7391 37.8646 20.0381 33.2884 20.0381C30.4249 20.0381 28.1881 21.0283 27.1509 22.7556L27.0589 22.9089C27.0446 22.9357 27.0242 22.9576 27.0127 22.9859L26.9994 23.0081L27.007 23.0144C26.9724 23.1082 26.9467 23.2069 26.9467 23.3126C26.9466 23.7718 27.3057 24.1388 27.7562 24.1721ZM42.2484 24.6553C42.4158 24.6553 42.5633 24.5954 42.6962 24.5132L42.7196 24.5246L42.8346 24.4197C42.8485 24.4068 42.8628 24.3957 42.8759 24.382L42.8923 24.3669C44.8133 22.6149 46.0868 21.7812 48.1244 21.7812C48.9849 21.7812 49.8254 21.9383 50.6064 22.2412C46.6085 22.7529 43.5084 26.1779 43.5084 30.3132V34.0456H45.2509V30.3132C45.2509 28.4676 46.0416 26.8071 47.2964 25.6389C47.8611 26.8718 48.8865 27.8857 50.1621 27.8857C50.2282 27.8857 50.2944 27.8829 50.3617 27.8773L50.4059 27.8737C50.414 27.8739 50.4209 27.8784 50.4291 27.8784C50.4484 27.8784 50.4645 27.8688 50.4833 27.8675L50.6321 27.8554L50.635 27.8368C51.014 27.7422 51.3008 27.4149 51.3008 27.0072C51.3008 26.6942 51.1263 26.4318 50.878 26.278L50.8811 26.2577L50.8039 26.228C50.7735 26.2133 50.7429 26.2035 50.7108 26.1923L50.6207 26.1577C49.6855 25.7998 49.0748 25.2768 48.7794 24.605C49.6427 24.1698 50.6142 23.9187 51.6451 23.9187C52.1657 23.9187 52.7672 23.9956 53.2407 24.11C53.795 24.3558 54.466 23.916 54.466 23.3129C54.466 23.2057 54.4458 23.1002 54.4088 23.0021L54.4525 22.9634L54.2169 22.6975C54.2258 22.707 54.2337 22.7177 54.2416 22.7294C54.2371 22.7244 54.2326 22.7199 54.2281 22.7154L53.8568 22.3334C52.535 20.8316 50.5524 20.0382 48.1242 20.0382C45.1699 20.0382 43.0761 21.0688 41.5367 23.2815L41.4133 23.4582L41.4345 23.4963C41.4022 23.5873 41.3762 23.682 41.3762 23.7841C41.3766 24.2648 41.767 24.6553 42.2484 24.6553Z" fill="#007934"/>
<path d="M43.6869 16.9801C44.2255 16.9801 44.6642 17.4182 44.6642 17.9574C44.6642 18.496 44.2255 18.9341 43.6869 18.9341H37.8848C37.3462 18.9341 36.9081 18.496 36.9081 17.9574C36.9081 17.4183 37.3462 16.9801 37.8848 16.9801H43.6869ZM65.0617 59.5041C65.0617 62.2452 62.8311 64.4758 60.09 64.4758C57.3478 64.4758 55.1172 62.2452 55.1172 59.5041C55.1172 56.7618 57.3478 54.5312 60.09 54.5312C62.8311 54.5312 65.0617 56.7618 65.0617 59.5041ZM60.09 56.2749C58.3093 56.2749 56.8608 57.7234 56.8608 59.5041C56.8608 61.2848 58.3093 62.7333 60.09 62.7333C61.8707 62.7333 63.3192 61.2848 63.3192 59.5041C63.3192 57.7234 61.8707 56.2749 60.09 56.2749ZM60.09 52.9469C60.8608 52.9469 61.4881 52.3197 61.4881 51.5489C61.4881 50.7769 60.8608 50.1496 60.09 50.1496C59.3192 50.1496 58.6919 50.7769 58.6919 51.5489C58.6919 52.3197 59.3192 52.9469 60.09 52.9469ZM40.7858 9.07585C41.5573 9.07585 42.1845 8.44862 42.1845 7.6772C42.1845 6.90579 41.5573 6.27856 40.7858 6.27856C40.0144 6.27856 39.3872 6.90579 39.3872 7.6772C39.3872 8.44862 40.0144 9.07585 40.7858 9.07585ZM35.4511 12.7623C35.4511 11.0461 36.8468 9.65033 38.563 9.65033H38.6578L40.6456 10.8347L42.6321 9.65033H42.7275C44.4442 9.65033 45.84 11.6479 45.84 13.3641C45.84 15.0804 44.4443 15.8743 42.7275 15.8743H38.563C36.8469 15.8743 35.4511 14.4785 35.4511 12.7623ZM38.563 14.1312H42.7275C43.4826 14.1312 44.0964 13.5168 44.0964 12.7623C44.0964 12.038 43.5308 11.4434 42.8172 11.3968L40.6456 12.6911L38.4733 11.3968C37.7603 11.4427 37.1942 12.038 37.1942 12.7623C37.1942 13.517 37.8085 14.1312 38.563 14.1312ZM48.1234 34.5864V44.9917C48.1234 45.9947 47.3066 46.8117 46.3034 46.8117H43.4871L42.3011 48.4218C41.9667 48.8931 41.4427 49.1713 40.8655 49.187C40.8491 49.187 40.8329 49.187 40.8166 49.187C40.2579 49.187 39.7406 48.9379 39.3923 48.4981L38.0783 46.8408L35.1094 46.8117C34.1052 46.8117 33.2888 45.9949 33.2888 44.9917V34.5864C33.2888 33.5828 34.105 32.7664 35.1094 32.7664H46.3034C47.3066 32.7664 48.1234 33.5828 48.1234 34.5864ZM46.3035 34.5095H35.1095C35.0668 34.5095 35.032 34.5443 35.032 34.5864V44.9917C35.032 45.0332 35.0674 45.0691 35.1095 45.0691H38.0183C38.5776 45.0691 39.0978 45.3205 39.445 45.758L40.7578 47.4142L40.8812 47.4108L42.0039 45.8333C42.3438 45.3542 42.8981 45.0692 43.4872 45.0692H46.3035C46.345 45.0692 46.3798 45.0334 46.3798 44.9918V34.5865C46.3798 34.5443 46.345 34.5095 46.3035 34.5095Z" fill="#F26531"/>
</svg>
